/* XPM */
static char *bba43883ccb34446b9a561984bc83124DgbxnRS8uVL7PXZF[] = {
/* columns rows colors chars-per-pixel */
"50 50 247 2 ",
"   c #2E0104",
".  c #2D020A",
"X  c #2E0A0E",
"o  c #350105",
"O  c #3C0205",
"+  c #34040B",
"@  c #3C040B",
"#  c #3D090D",
"$  c #34090E",
"%  c #3C0511",
"&  c #3D0A12",
"*  c #340715",
"=  c #2B0210",
"-  c #440305",
";  c #4A0306",
":  c #4C0C05",
">  c #43050C",
",  c #4B050C",
"<  c #44090E",
"1  c #4C0A0C",
"2  c #430907",
"3  c #530204",
"4  c #530C06",
"5  c #53040B",
"6  c #5B040A",
"7  c #540B0C",
"8  c #5B0B0C",
"9  c #5A0304",
"0  c #4A120C",
"q  c #54130C",
"w  c #5B130C",
"e  c #5C190D",
"r  c #581407",
"t  c #430611",
"y  c #4B0611",
"u  c #450B12",
"i  c #4B0C13",
"p  c #470C19",
"a  c #530511",
"s  c #530D12",
"d  c #5B0C11",
"f  c #5B0712",
"g  c #4D1214",
"h  c #4D131B",
"j  c #4C1916",
"k  c #541314",
"l  c #5B1414",
"z  c #541A14",
"x  c #5B1B13",
"c  c #52151B",
"v  c #5C161A",
"b  c #551B1B",
"n  c #5B1C1C",
"m  c #64060C",
"M  c #640B0C",
"N  c #690B0B",
"B  c #720C0B",
"V  c #64130E",
"C  c #6B120E",
"Z  c #6A1A09",
"A  c #72170D",
"S  c #650311",
"D  c #630B12",
"F  c #6A0D13",
"G  c #6E0B17",
"H  c #631412",
"J  c #6C1313",
"K  c #641B13",
"L  c #6B1B15",
"P  c #621319",
"I  c #6C1219",
"U  c #631A1B",
"Y  c #6B1D1A",
"T  c #721413",
"R  c #731B12",
"E  c #741C1A",
"W  c #7B1B1A",
"Q  c #781717",
"!  c #770514",
"~  c #5D2316",
"^  c #5C251C",
"/  c #5C220C",
"(  c #6A2314",
")  c #6C2A15",
"_  c #64241C",
"`  c #6B231B",
"'  c #6D2A1B",
"]  c #642618",
"[  c #7B2415",
"{  c #74261C",
"}  c #7C251C",
"|  c #722B1C",
" . c #7C291E",
".. c #782715",
"X. c #6A321B",
"o. c #79341B",
"O. c #75230E",
"+. c #541B22",
"@. c #5A1E23",
"#. c #501622",
"$. c #661A21",
"%. c #781C22",
"&. c #5B2225",
"*. c #582324",
"=. c #642423",
"-. c #6B2D2A",
";. c #682925",
":. c #722B23",
">. c #772724",
",. c #6B3529",
"<. c #7E3C23",
"1. c #73342C",
"2. c #793727",
"3. c #6A3337",
"4. c #753834",
"5. c #672F32",
"6. c #7A4537",
"7. c #733E47",
"8. c #851D18",
"9. c #86150D",
"0. c #822C16",
"q. c #832B1C",
"w. c #89261B",
"e. c #922A1D",
"r. c #88371C",
"t. c #903016",
"y. c #841422",
"u. c #832B23",
"i. c #8C2D22",
"p. c #862928",
"a. c #922B24",
"s. c #962B27",
"d. c #833223",
"f. c #8D3325",
"g. c #863A29",
"h. c #943525",
"j. c #943429",
"k. c #9B352C",
"l. c #933B2B",
"z. c #9B3A2D",
"x. c #993825",
"c. c #853B32",
"v. c #993734",
"b. c #952935",
"n. c #A33B2C",
"m. c #A53828",
"M. c #A33C31",
"N. c #A93A38",
"B. c #B13831",
"V. c #88441E",
"C. c #8A4422",
"Z. c #87462A",
"A. c #954C2A",
"S. c #964629",
"D. c #99542B",
"F. c #854937",
"G. c #9A4937",
"H. c #8A533C",
"J. c #975536",
"K. c #A4422C",
"L. c #A54434",
"P. c #A34A35",
"I. c #AB4A35",
"U. c #AC4B3B",
"Y. c #A64738",
"T. c #B6483A",
"R. c #AB513A",
"E. c #A35C3A",
"W. c #A65736",
"Q. c #B3543D",
"!. c #A8522E",
"~. c #A6613D",
"^. c #BE703F",
"/. c #B53943",
"(. c #854E41",
"). c #8C5545",
"_. c #965945",
"`. c #935C55",
"'. c #AE5242",
"]. c #A85E43",
"[. c #B65A47",
"{. c #AD524D",
"}. c #9B644A",
"|. c #996756",
" X c #A56143",
".X c #AF6A41",
"XX c #B86649",
"oX c #B87449",
"OX c #BE6853",
"+X c #AB755C",
"@X c #B57151",
"#X c #A86F56",
"$X c #AA7865",
"%X c #B57B67",
"&X c #C35C47",
"*X c #C45E50",
"=X c #C56B56",
"-X c #C87252",
";X c #B98569",
":X c #AE8372",
">X c #B78876",
",X c #CB8558",
"<X c #D1885D",
"1X c #C88770",
"2X c #C59477",
"3X c #D18667",
"4X c #E4976F",
"5X c #EAA275",
"6X c #F4AE7D",
"7X c #C99D85",
"8X c #D8A789",
"9X c #D8A892",
"0X c #DFB495",
"qX c #D9B09C",
"wX c #CDA48A",
"eX c #EAAB8B",
"rX c #E5B598",
"tX c #F9B698",
"yX c #F0AD8E",
"uX c #E6BBA4",
"iX c #F6BFA0",
"pX c #EEC09C",
"aX c #ECC7AD",
"sX c #F2C9A9",
"dX c #ECCCB5",
"fX c #EDCFBA",
"gX c #F3CDB3",
"hX c #F7CEB8",
"jX c #EED1BB",
"kX c #F5D1B7",
"lX c #F3D3BC",
"zX c #FCD4BC",
"xX c #FAD4B8",
"cX c #FED0AE",
"vX c #F3D4C2",
"bX c #F5DAC6",
"nX c #FBDAC4",
"mX c #FCDCCA",
"MX c #F9D7C8",
"NX c #F7DED2",
"BX c #F6DBD1",
"VX c #F9DDD3",
"CX c #F7E2CF",
"ZX c #F6E1D2",
"AX c #FAE3D3",
"SX c #FAE8DD",
"DX c #F9E9E1",
/* pixels */
"lXvXbXMXvXvXjXjXvXlXnXfXlXaXxXxXCXwX:X>X$XH.+X1X;X#X}.H.H.H.}._.}.;X0XpXaXgXlXbXvXmXbXvXbXAXAXZXZXZX",
"lXlXvXbXvXvXlXfXlXlXdXlXdXlXaXkX%X).|.6.] ).H.] ,._ ~ ;.2.H.).F.^ H.;X5XrXsXkXlXvXbXbXbXVXAXAXAXZXZX",
"gXkXlXlXvXlXlXhXlXnXdXlXlXaXzX$X|.9X$X6.1.1.z _ g b c +.&.;.^ n ~ ~ ,.).;X8XaXsXlXnXbXNXAXAXCXAXZXZX",
"rXsXkXlXlXvXlXlXlXfXkXgXkXnX>X,.|.6.~ 5.-.5.5.p c &.@.+.&.&.j b b b z _ X.H.;X0XdXvXMXBXVXmXCXAXVXVX",
"2XrXkXlXvXvXlXfXjXlXdXxXhXuX(.,.4.^ ^ j &.&.& h #.b g g &.&.*.b +.+.+.b 0 ~ F.+XwXaXmXMXBXVXZXZXZXVX",
"+X8XgXlXjXlXdXkXfXlXdXxX9X).`.5.^ z ^ j *.#.j h @.&.c i h b c c *.c h h b ^ ] ,.+X9XhXnXmXVXVXVXAXZX",
"#X0XkXjXlXlXdXgXfXaXgX9X6.,.1.b ^ *.j +.j o b p b ^ =.@.i i g b g g #.#.g p b =.6.%X0XgXnXmXAXDXSXZX",
"+X0XkXjXvXvXdXkXlXlXuX$X_.=.z b u *.&.b h n < $.z c @.@.c h c i 0 p h p h h c b ( _.1XrXsXvXVXDXSXSX",
"8XgXlXjXvXvXhXkXvXhXrX7X,.5.3.n p g n U k l n v _ ^ b j j b t u u < u h h i i c ~ ;.].yXtXiXmXSXDXDX",
"uXkXnXvXvXjXjXzXdXhXrX|.^ c ^ q k l _ :.` E =.P x =.=.g < h p @ # # t u i h h c b @.c.1XtXtXhXVXSXDX",
"hXlXkXjXjXjXlXvXgXxX7X,.q l | o.:.:.g.g.g.l.g.>.K ` 1.v 2 i p # o # & @ t p c i h g ;._.yXtXyXnXDXDX",
"qXuXkXlXlXlXnXjXxXsX$X] 7 g.l.W.G.G.G.P.P.G.S.f.{ L >.-.1 @ > p @ @ % @ @ u i i p p $.c.-XyXeXcXSXSX",
"|.:XqXjXkXjXdXgXsX2XH.v Y G.I.R.[.XXQ.I.P.K.x.h.u.J { 1.z O @ p & @ @ % % > t i i i g ' E.4X5XtXlXzX",
"7.6.|.wXsXkXkXnXcX$X2.4 d.I.Q.Q.OX=XOXQ.Y.n.h.r.>.R { ' x 1 > t t @ + $ % + @ u 1 < < ~ 6.<X4X<X5X6X",
"7.3.,.|.0XxXxXxXrX_.' 9 g.R.[.=XOX-XOXR.Y.G.h.h.q.R { Y x g > @ t @ % $ + $ + > , % # j ] ~.-X^.^.,X",
"3.3.,.6.;X0XrX0X;X6.w r l.Q.K.[.OX=X{.Y.Y.z.i.i.>.( ( ( ] k O > @ t % + + & & + > u u u e 6.@X XJ.~.",
"4.6.Z.H.J.A.J.~.D.,.j V m.T.U.[.OX#X[.'.z.k.i.q.q...R K x n 1 o O > > + O @ # + @ y < < i :.E.D.~.J.",
"4.1.2.2.) ) 6.A.D.^ < O.m.'.[.[.=X=X'.Y.n.x.z.l.[ q. .K 7 k u t @ < # @ + @ @ @ @ t > < u ` J.D.Z.o.",
"-.=.] ] q ] 6.A.C.z #  .T.[.[.*X=X=XR.R.Q.n.x.q.f.u.} V 8 n p O O # > # @ @ @ + > > > > - l g.A.g.| ",
"x g k c i _ 6.D.g.0 # d.T.'.XX&X&X[.R.'.'.Y.f.d.} q.>.J 8 s 1 < O @ @ @ # # + o > # > # O 1 ) C.:.( ",
"0 2 < u y =.Z.V.) # O { q.>.v.U.Q.Y.G.d.E L 8 ( ( L R V 8 s 1 i O @ O # # # + + t @ > # @ - x Z.6.X.",
"$ o @ @ t ;.Z.V.' < g Y L P :.P.U.l.g.Y P U -.-.:.V 8 8 H H 7 1 < > > > < > > # t @ > @ @ > 4 2.o.O.",
"+ $ o O g 1.Z.C.x o < 4 v +.1 q.*Xv. .w U d 4.< s c U J V 8 7 k i , - > > < u > t @ > @ % > ; ' Z.o.",
"  $ o o z 4.Z.r.` O i x 4.7.h R T.i.M 3 $.Y {.;.O - l H L E l 4 z i y > < > > u t @ # + t @ - _ 6.) ",
"  . * & / Z.C.6.~ - L [ f.i.e.'.v.W D 9 p.v.u.p.} q.[ R A L Y l q w : > u p t - y O + > > > i i ) ) ",
"  X $ < o.J.V.o.x 5 { e.a.k.m.'.s.F I I W v.k.s.f.h.j.w.R C V l U x 7 < t t > > i > @ @ @ > t i X.V.",
"$ & + z J.W.V.o.w P i.m.m.B.B.L.k.G I E w.n.B.n.M.n.n.a.Q M 7 7 $.U e 0 y t > y < < + @ t > > k ( 6.",
"u j # ' ].!.V.o.e L k.B./.T.T.m.s.Q F G s.T.T.T.T.n.s.w.W N 5 3 y l ~ r 1 - > y # u # + u > @ k Z <.",
"& j : 6.E.S.V.r.Z 8 M.B./.B.T.Y.w.T F F a.B.'.*XT.m.8.9.Q G 8 5 @ i w e w 1 , i # u < $ u t > i w <.",
"$ # r F.G.r.C.V.( 8 l.m.s.9.K.M.W N I E B e.T.B.B.s.8.Q J M m 8 t u 1 4 z l s 1 # < < @ t > > i 4 o.",
"X o ~ J.A.r.!.A.) 8 } e.B B x.j.T 6 P $.9 B m.s.e.e.w.T F M 8 3 t t > - s k k 1 > u < < > t y i 4 1.",
"*   X.~.A.r.W.D.) , J r.m 9.K.p.9 5 a f 6 B i.x.e.e.W Q J L 8 3 + t < , y a 7 x > < y u > > y , : 1.",
"~ ] J.@XV.A.oXJ.o.: - =.O.t.x.R.g.y.T C W %.>.p.u.[ A C C L d , - @ o > y y k k 2 > y @ < @ < i 4 U ",
"Z.~.oXoXD.D.~.A.| : > v l.0.e.h.v./.v.b.p.%.I H A f.i.R T M 6 d - @ + > i , l k < > y @ # + < , ; k ",
"oX,X,XoXA.!.E.C.' 1 O i c.v.e.8.! y.y.! S 6 , , A Y.f.A W J 6 5 @ > @ @ i ; k 1 t @ i > + o u - ; s ",
"~.W.~.E.A.D.W.o.' z O > P Y.L.w././.b.%.! S D I f.U.0.B W I 8 3 O o o O k - 1 O u @ u # o o p > i k ",
"Z ( r | J.J.o.) ( r > - O d.U.n.k.v.s.y.8.Q p.v.S.Y.w.A F 9 d 3 @ o o - l 1 < O u @ u > o o p 2 1 z ",
"4 ; ; ] c.:.) ) ( : s @ o : S.I.z.z.k.k.s.p.w.h.f.p.W Q M 3 d , @ O O z v s # + < > t @ @ o u < - k ",
"E Z K | ] e ' ` ( 7 s % $ o ( S.K.T.U.Y.Y.k.f.q.q.O.J J D 6 5 - + > - $.H 7 + + < > i > < + u , , k ",
"[ 0.Z R { ( Y e H P - * . o : g.I.T.L.n.l.j.f.q.R J J m 6 f ; ; > > - >.l , o $ < u i @ # O > > : 7 ",
"d.f.0.Z R ` w e H 4 , > + + + v T.n.M.n.q.f.p.Q V C M 6 5 5 ; ; , O U =.; > @ + > i u @ > > @ > s s ",
"q.0.0.Z ( Y 8 q V 7 , @ + o o p w.G.L.k.f.q.R R N M M 5 5 5 5 ; , > v U , > # + @ u > # @ @ @ t 7 s ",
"0.0.r...L U 8 w 8 7 y @ + .   @ : :.p.y.W Q C M 8 M 6 5 , 5 , , , ; d k 1 - + + O @ # # + @ @ % 7 , ",
"r.0.d.>.H l l l 7 s s @ . X   o + O P Q m J R V m 9 6 5 5 5 5 , 5 , 7 , 1 u O + @ o # u o o +   > - ",
"0.0.o.` , y a l a f a + + X . + X   5 G m F >.>.L D 5 3 5 5 5 5 5 5 , ; - u o + $ + & u o o o   1 u ",
"0.0.| q > y , 8 i s i O   + + + . > f D G m F p.%.J m 9 6 9 5 5 5 5 a - > > O # o o @ > @ + + o > 1 ",
"q.r.( ; > c s 4 , a i O o + o > + - 5 D G m 6 Q W T F C J F 8 9 5 5 s , - > > > O @ O # < @ o + > > ",
"0.q.K O t +.7 3 , , 1 O o @ @ y 1 - 5 F m S G S T C T [ u.} J m 7 s s y O > > < O < @ + u # O + > > ",
"$.l ; 7 l 5 d 7 , ; - > - , f f y 5 3 M N F m S B R [ 0.0.[ R J 8 5 5 d 5 , O + ; > @ @ > > y o > > ",
"w ; O 1 s 5 l s ; - - , > 5 f f 5 , 3 F N F S S F J R 0.q.[ C M 8 8 6 d 7 , @ t ; , > > > y i O > > "
};
